<svg width="99" height="97" fill="none" xmlns="http://www.w3.org/2000/svg"><path d="M59.294 17.018a8.006 8.006 0 00-1.353-4.454 8.045 8.045 0 00-12.356-1.215 8.011 8.011 0 00-1.742 8.736 8.02 8.02 0 002.958 3.598 8.042 8.042 0 004.462 1.351 8.047 8.047 0 005.677-2.35 8.017 8.017 0 002.354-5.666zm-13.46 0a5.428 5.428 0 016.49-5.317 5.434 5.434 0 012.78 1.483 5.417 5.417 0 011.177 5.907 5.423 5.423 0 01-2 2.433 5.438 5.438 0 01-6.855-.676 5.42 5.42 0 01-1.592-3.83zM85.39 63.916c7.399 0 12.979-2.72 12.979-6.339 0-3.618-5.58-6.338-12.979-6.338-7.399 0-12.978 2.72-12.978 6.338a4.828 4.828 0 002.623 3.917L63.08 66.559a26.162 26.162 0 00-4.5-1.295c8.61-11.632 19.96-27.176 19.96-37.384 0-7.22-2.874-14.146-7.99-19.251A27.302 27.302 0 0051.264.654 27.301 27.301 0 0031.976 8.63a27.2 27.2 0 00-7.989 19.251c0 10.207 11.345 25.752 19.96 37.384a27.433 27.433 0 00-3.547.941l-9.27-5.456a4.261 4.261 0 001.64-3.177c0-3.613-5.578-6.339-12.977-6.339-7.4 0-12.979 2.72-12.979 6.339s5.58 6.339 12.979 6.339a22.278 22.278 0 008.84-1.617l8.818 5.189c-2.725 1.496-4.293 3.458-4.293 5.639 0 1.791 1.051 3.457 3.014 4.842l-15.338 6.509a24.355 24.355 0 00-7.222-1.011c-7.398 0-12.978 2.72-12.978 6.34 0 3.62 5.58 6.338 12.978 6.338 7.4 0 12.98-2.72 12.98-6.338a4.782 4.782 0 00-2.555-3.867l15.067-6.389a32.535 32.535 0 0012.16 2.133 36.498 36.498 0 008.629-.988l8.9 5.236a4.808 4.808 0 00-2.56 3.875c0 3.613 5.578 6.338 12.977 6.338s12.978-2.72 12.978-6.338c0-3.619-5.58-6.34-12.978-6.34a23.903 23.903 0 00-7.57 1.126l-8.423-4.956c.15-.06.302-.122.448-.185 3.68-1.588 5.706-3.833 5.706-6.321 0-1.893-1.179-3.622-3.276-5.024l12.182-5.165a24.45 24.45 0 007.114.978zM9.417 57.577c0-1.523 4.042-3.741 10.377-3.741 6.335 0 10.377 2.216 10.377 3.741 0 1.526-4.043 3.743-10.377 3.743-6.334 0-10.38-2.216-10.38-3.743h.003zm4.194 35.967c-6.334 0-10.376-2.216-10.376-3.741 0-1.526 4.042-3.743 10.376-3.743s10.377 2.216 10.377 3.743c0 1.526-4.044 3.741-10.379 3.741h.002zm75.973-3.741c0 1.523-4.041 3.741-10.376 3.741-6.335 0-10.377-2.216-10.377-3.741 0-1.526 4.043-3.743 10.377-3.743 6.334 0 10.376 2.216 10.376 3.743zM51.264 3.256a24.725 24.725 0 0117.44 7.221 24.634 24.634 0 017.235 17.408c0 9.59-11.591 25.232-20.056 36.653-1.744 2.353-3.3 4.455-4.622 6.317-1.32-1.862-2.879-3.966-4.622-6.318-8.462-11.424-20.056-27.062-20.056-36.652a24.635 24.635 0 017.238-17.41 24.726 24.726 0 0117.442-7.22zm0 75.828c-9.138 0-15.505-3.14-15.505-5.957 0-1.959 3.468-4.509 9.92-5.528 1.75 2.366 3.281 4.46 4.515 6.26a1.3 1.3 0 002.148 0c1.233-1.803 2.765-3.894 4.515-6.26 6.447 1.02 9.92 3.566 9.92 5.528-.008 2.818-6.377 5.955-15.514 5.955v.002zM85.39 53.84c6.334 0 10.377 2.216 10.377 3.742 0 1.525-4.043 3.742-10.377 3.742-6.334 0-10.377-2.216-10.377-3.742 0-1.527 4.042-3.742 10.377-3.742z" fill="#B88571"/></svg>