<svg width="96" height="106" fill="none" xmlns="http://www.w3.org/2000/svg"><path d="M57.386 26.598c0-.157.033-.312.098-.457.065-.145.161-.277.282-.388.12-.111.263-.2.42-.26.158-.06.327-.09.498-.09H68.79c.337.01.657.14.892.362.235.223.367.522.367.833 0 .31-.132.61-.367.832a1.353 1.353 0 01-.892.363H58.684c-.17 0-.34-.03-.497-.09-.157-.06-.3-.149-.421-.26a1.192 1.192 0 01-.281-.387 1.113 1.113 0 01-.1-.458zM18.83 27.793h32.833c.337-.01.657-.14.892-.363.235-.223.367-.521.367-.832 0-.31-.132-.61-.367-.833a1.353 1.353 0 00-.892-.363H18.835c-.338.01-.658.14-.893.363a1.148 1.148 0 00-.366.833c0 .31.132.61.366.832.235.223.555.354.893.363h-.005zm0 10.575h55.213a1.4 1.4 0 00.51-.08c.162-.058.31-.145.435-.257.125-.111.224-.245.292-.392a1.113 1.113 0 000-.933 1.197 1.197 0 00-.292-.392 1.316 1.316 0 00-.436-.257 1.398 1.398 0 00-.509-.08H18.835c-.338.01-.658.14-.893.363a1.148 1.148 0 00-.366.832c0 .311.132.61.366.833.235.223.555.353.893.363h-.005zm0 10.574h6.868c.174.005.347-.022.51-.08a1.33 1.33 0 00.435-.256c.125-.112.224-.245.292-.393a1.115 1.115 0 000-.932 1.197 1.197 0 00-.292-.393 1.317 1.317 0 00-.436-.256 1.402 1.402 0 00-.509-.08h-6.863a1.36 1.36 0 00-.893.362 1.148 1.148 0 00-.366.833c0 .31.132.61.366.832.235.223.555.354.893.363h-.005zm55.208-2.39H32.71a1.402 1.402 0 00-.51.08c-.162.057-.31.145-.435.256a1.196 1.196 0 00-.292.393 1.113 1.113 0 000 .932c.068.148.167.281.292.393.125.111.273.198.436.256.162.058.335.085.509.08h41.328c.174.005.347-.022.51-.08a1.33 1.33 0 00.435-.256c.124-.112.224-.245.292-.393a1.115 1.115 0 000-.932 1.197 1.197 0 00-.292-.393 1.317 1.317 0 00-.436-.256 1.402 1.402 0 00-.509-.08zM18.835 59.516h32.301a1.4 1.4 0 00.51-.08c.162-.058.31-.145.435-.257.125-.111.224-.245.292-.392a1.113 1.113 0 000-.933 1.197 1.197 0 00-.292-.392 1.317 1.317 0 00-.435-.257 1.398 1.398 0 00-.51-.08H18.835a1.398 1.398 0 00-.51.08 1.32 1.32 0 00-.435.257 1.2 1.2 0 00-.292.392 1.115 1.115 0 000 .933c.068.147.167.28.292.392.125.112.273.199.435.257a1.4 1.4 0 00.51.08zm26.038 8.185H18.835c-.338.01-.658.14-.893.363a1.148 1.148 0 00-.366.832c0 .31.132.61.366.833.235.223.555.353.893.363h26.038a1.4 1.4 0 00.51-.08c.161-.058.31-.146.434-.257a1.2 1.2 0 00.292-.392 1.115 1.115 0 000-.933 1.2 1.2 0 00-.292-.392 1.318 1.318 0 00-.435-.257 1.4 1.4 0 00-.51-.08zm50.239-3.914v16.049c0 5.178-.947 10.826-7.813 17.042-4.08 3.723-9.022 6.549-14.456 8.266-.237.065-.49.065-.728 0-5.116-1.615-9.799-4.218-13.734-7.635H2.186c-.344 0-.674-.126-.917-.35a1.15 1.15 0 01-.38-.846V8.006c0-.317.136-.62.38-.845.243-.224.573-.35.917-.35h5.977v-4.81c0-.317.137-.621.38-.845a1.36 1.36 0 01.919-.35h59.454c.04 0 .062.008.093.013h.033c.035.007.072.015.106.024h.016c.036.01.072.02.106.034h.014c.033.011.064.026.094.04l.02.01c.03.013.057.03.085.046l.025.014c.027.016.053.035.078.053l.024.016c.033.025.065.051.095.08l15.236 14.04c.03.028.06.058.088.09l.011.013c.022.026.044.052.064.08l.012.019a.79.79 0 01.053.08l.009.017c.016.03.032.06.046.09v.011c.014.032.028.065.04.099v.012a.92.92 0 01.027.101v.028c0 .03.011.058.014.088a.935.935 0 010 .116v44.304l8.855 2.32c.273.068.514.217.686.424.172.206.266.46.266.72zm-25.02-48.96h10.794l-10.798-9.94.004 9.94zm-49.958-.036l2.654-2.227c.239-.2.55-.312.874-.312.323 0 .635.111.874.312l2.654 2.227v-11.6h-7.056v11.6zM10.759 88.72l40.744.02a21.358 21.358 0 01-1.653-8.904V63.788c0-.258.091-.509.26-.715.17-.205.407-.354.677-.424L72.23 57.07c.23-.06.473-.06.703 0l9.793 2.571V17.219H68.79a1.36 1.36 0 01-.919-.35 1.15 1.15 0 01-.38-.846V3.197H29.787v14.307c0 .232-.073.458-.21.652a1.274 1.274 0 01-.564.44 1.37 1.37 0 01-.524.103c-.324 0-.636-.111-.875-.312l-3.952-3.319-3.953 3.315a1.347 1.347 0 01-.665.297 1.4 1.4 0 01-.733-.087 1.276 1.276 0 01-.563-.44 1.127 1.127 0 01-.21-.652V3.196h-6.779V88.72zm-7.273 6.4h52.373a24.467 24.467 0 01-3.1-3.986L9.46 91.11c-.344 0-.674-.127-.917-.351a1.15 1.15 0 01-.38-.845V9.202H3.486V95.12zm89.053-30.438l-8.71-2.286a1.346 1.346 0 01-.322-.084l-10.93-2.87-20.16 5.244v15.15a18.187 18.187 0 002.165 9.433c.054.072.099.15.134.231a23.802 23.802 0 004.745 5.684c.066.06.126.117.198.177.081.057.155.122.22.195 3.622 3.167 7.91 5.618 12.6 7.202 4.87-1.649 9.307-4.229 13.017-7.569 6.498-5.883 7.043-11.01 7.043-15.352V64.682zM81.703 77.51v9.868a2.18 2.18 0 01-.722 1.6 2.575 2.575 0 01-1.738.664H65.725c-.653 0-1.278-.24-1.74-.664a2.18 2.18 0 01-.721-1.6V77.51c0-.6.26-1.177.721-1.601a2.573 2.573 0 011.74-.664h1.882v-3.132c0-1.19.513-2.33 1.427-3.172.914-.842 2.154-1.315 3.447-1.315 1.292 0 2.532.473 3.446 1.315.914.841 1.427 1.982 1.427 3.172v3.132h1.89a2.573 2.573 0 011.735.666c.46.425.718 1 .719 1.599h.005zm-11.494-2.265h4.553v-3.132c0-.556-.24-1.089-.666-1.482a2.38 2.38 0 00-1.61-.614 2.38 2.38 0 00-1.61.614 2.015 2.015 0 00-.667 1.482v3.132zm8.897 2.391H65.86v9.615H79.1l.005-9.615z" fill="#B88571"/></svg>