<svg width="93" height="97" fill="none" xmlns="http://www.w3.org/2000/svg"><path d="M79.117 44.897V29.162h5.359c.519 0 .983-.32 1.168-.806a1.255 1.255 0 00-.337-1.382L73.308 16.26a1.248 1.248 0 00-1.664 0L59.645 26.974a1.256 1.256 0 00-.337 1.382c.185.486.65.806 1.169.806h5.358v12.644a24.848 24.848 0 00-6.544 1.202l-2.494-2.523V13.583h5.36c.519 0 .983-.32 1.168-.806a1.257 1.257 0 00-.337-1.382L50.991.68a1.249 1.249 0 00-1.664 0L37.328 11.395a1.257 1.257 0 00-.337 1.382c.185.486.65.806 1.169.806h5.358v23.31a27.78 27.78 0 00-2.266-.726l.018-3.838a1.252 1.252 0 00-1.245-1.258l-5.546-.026v-6.847h5.359c.518 0 .983-.32 1.168-.806a1.255 1.255 0 00-.337-1.382L28.673 11.294a1.248 1.248 0 00-1.664 0L15.01 22.01a1.257 1.257 0 00-.337 1.382c.185.486.65.806 1.169.806H21.2v13.886a28.37 28.37 0 00-1.728.92l-2.698-2.73a1.251 1.251 0 00-1.769-.008l-8.663 8.596a1.255 1.255 0 00-.008 1.772l2.698 2.73a28.573 28.573 0 00-2.966 7.069l-3.831-.018h-.006A1.25 1.25 0 00.98 57.66L.924 69.879a1.251 1.251 0 001.244 1.259L6 71.156a28.557 28.557 0 002.899 7.098l-2.725 2.702a1.255 1.255 0 00-.008 1.772l8.58 8.68c.233.235.551.369.883.37h.006c.33 0 .647-.13.88-.362l2.724-2.703a28.4 28.4 0 007.058 2.97l-.018 3.84a1.249 1.249 0 001.244 1.259l12.193.056h.006a1.25 1.25 0 001.25-1.247l.02-3.838a28.492 28.492 0 007.084-2.904l2.698 2.73a1.25 1.25 0 001.769.008l2.59-2.57c.02-.02.026-.047.044-.067a24.844 24.844 0 0011.859 2.997c13.807 0 25.039-11.254 25.039-25.085 0-9.447-5.24-17.686-12.958-21.965zm-15.356-18.24l8.717-7.785 8.716 7.785h-3.326a1.25 1.25 0 00-1.251 1.252v15.778a24.797 24.797 0 00-8.278-1.878V27.91c0-.691-.56-1.252-1.25-1.252H63.76zM44.769 11.08h-3.326l8.716-7.785 8.717 7.785h-3.328c-.69 0-1.25.56-1.25 1.252v25.624l-1.495-1.513c-.234-.236-.562-.389-.888-.37-.33 0-.647.13-.88.362l-2.724 2.705a28.674 28.674 0 00-2.29-1.2V12.33c0-.691-.56-1.252-1.252-1.252zM22.452 21.693h-3.326l8.716-7.785 8.716 7.785h-3.327c-.69 0-1.25.56-1.25 1.252v8.088l-4.148-.02h-.006c-.688 0-1.248.557-1.251 1.247l-.018 3.838c-.972.252-1.92.57-2.856.921V22.945a1.25 1.25 0 00-1.25-1.252zm29.219 67.231l-2.51-2.537a1.249 1.249 0 00-1.549-.181 25.984 25.984 0 01-8.138 3.336c-.57.126-.976.632-.98 1.216l-.016 3.568-9.692-.046.016-3.568a1.253 1.253 0 00-.969-1.226 26.004 26.004 0 01-8.107-3.412 1.247 1.247 0 00-1.552.167l-2.531 2.513-6.821-6.898 2.532-2.513c.415-.412.49-1.057.181-1.554a26.068 26.068 0 01-3.33-8.153 1.25 1.25 0 00-1.214-.981l-3.561-.017.045-9.713 3.56.018c.567.013 1.093-.4 1.225-.97a26.068 26.068 0 013.407-8.121 1.256 1.256 0 00-.166-1.555l-2.51-2.538 6.886-6.833 2.51 2.538c.41.415 1.052.49 1.55.18a25.936 25.936 0 018.138-3.335c.57-.127.977-.633.98-1.217l.016-3.568 9.693.047-.017 3.566c-.002.584.4 1.095.968 1.226a25.986 25.986 0 018.107 3.415 1.249 1.249 0 001.551-.167l2.532-2.514 4.845 4.902a25.175 25.175 0 00-9.045 6.935 18.906 18.906 0 00-13.931-6.083c-10.499 0-19.04 8.558-19.04 19.076 0 10.519 8.541 19.076 19.04 19.076 4.153 0 8.16-1.36 11.449-3.844a25.243 25.243 0 007.765 8.457l-1.317 1.308zm-5.494-35.921a24.966 24.966 0 00-4.181 13.859c0 3.555.747 6.937 2.084 10.004a16.485 16.485 0 01-10.305 3.631c-9.12 0-16.54-7.434-16.54-16.57 0-9.138 7.42-16.573 16.54-16.573 4.796 0 9.258 2.06 12.402 5.649zm20.859 36.44c-12.428 0-22.538-10.131-22.538-22.581S54.608 44.28 67.035 44.28s22.538 10.13 22.538 22.58c0 12.45-10.11 22.581-22.538 22.581zM84.53 76.9a20.099 20.099 0 002.688-10.04c0-3.655-.987-7.077-2.688-10.039-.015-.03-.015-.063-.032-.092-.019-.033-.051-.051-.074-.081a20.329 20.329 0 00-7.192-7.208c-.031-.022-.05-.055-.084-.076-.03-.018-.064-.018-.095-.033a20.01 20.01 0 00-10.018-2.69c-3.647 0-7.061.988-10.017 2.69-.032.015-.067.015-.097.033-.034.02-.053.055-.085.078a20.329 20.329 0 00-7.19 7.203c-.022.032-.055.05-.075.084-.017.03-.018.063-.033.094-.068.12-.147.23-.213.352l-.01.017a20.123 20.123 0 00-2.464 9.669c0 3.654.988 7.076 2.687 10.038.015.03.015.064.033.094.03.052.072.091.108.137a20.328 20.328 0 007.157 7.15c.032.023.051.056.085.077.044.025.09.037.136.056a20.004 20.004 0 009.979 2.668c3.632 0 7.033-.98 9.98-2.669.044-.019.09-.03.132-.055.035-.02.053-.054.084-.077a20.323 20.323 0 007.162-7.154c.035-.044.074-.084.104-.133.018-.031.018-.063.032-.093zm-7.597 4.632l-.667-1.131a1.25 1.25 0 10-2.153 1.276l.646 1.094a17.527 17.527 0 01-6.472 1.741v-1.254a1.251 1.251 0 10-2.502 0v1.254a17.485 17.485 0 01-6.473-1.74l.646-1.095a1.25 1.25 0 10-2.153-1.276l-.668 1.13a17.845 17.845 0 01-4.745-4.754l1.128-.668a1.253 1.253 0 00-1.275-2.157l-1.091.647a17.59 17.59 0 01-1.738-6.485h1.252a1.251 1.251 0 000-2.505h-1.252a17.58 17.58 0 011.7-6.407c.03-.014.056-.033.085-.05l1.044.62a1.25 1.25 0 001.713-.441 1.253 1.253 0 00-.44-1.717l-1.128-.669a17.85 17.85 0 014.745-4.755l.668 1.131a1.25 1.25 0 001.713.44c.594-.352.79-1.12.44-1.716l-.647-1.094a17.485 17.485 0 016.474-1.741v1.255a1.251 1.251 0 102.502 0V49.21c2.309.163 4.492.77 6.472 1.74l-.646 1.095a1.253 1.253 0 001.075 1.891c.427 0 .844-.22 1.078-.615l.667-1.13a17.839 17.839 0 014.747 4.755l-1.129.668a1.255 1.255 0 00.638 2.332c.216 0 .435-.057.635-.175l1.092-.647a17.591 17.591 0 011.737 6.485h-1.253a1.251 1.251 0 000 2.505h1.253a17.57 17.57 0 01-1.737 6.485l-1.092-.647a1.253 1.253 0 00-1.273 2.157l1.129.668a17.81 17.81 0 01-4.745 4.755zm.722-14.671c0 .69-.56 1.252-1.251 1.252h-9.368a1.25 1.25 0 01-1.25-1.252v-11.9a1.251 1.251 0 112.5 0v10.646h8.118c.69 0 1.25.561 1.25 1.254z" fill="#B88571"/></svg>