<svg width="116" height="145" fill="none" xmlns="http://www.w3.org/2000/svg"><path d="M105.465 70.87L69.227 81.594 56.23 67.002H29.281v-4.13H20.7v-5.339H1.773v2.368h16.56v41.974H1.772v2.367H20.7v-5.338h8.581v-2.168h10.7l23.997 13.552 46.821-26.965c2.937-1.683 4.183-5.208 2.963-8.384-1.28-3.313-4.932-5.099-8.297-4.07zM26.914 96.536h-6.215V65.239h6.215v31.298zm82.705-15.267l-45.653 26.293-23.364-13.195h-11.32V69.37h25.887l12.787 14.367.785.873a4.343 4.343 0 01-.151 5.991 4.37 4.37 0 01-6.172 0l-9.171-9.157-1.671 1.675 9.17 9.156c2.622 2.623 6.893 2.624 9.517 0 2.374-2.372 2.585-6.072.636-8.713l35.248-10.425c2.195-.674 4.572.495 5.406 2.653a4.44 4.44 0 01-1.934 5.48z" fill="#B88571"/><path d="M15.254 92.213a4.615 4.615 0 00-4.61-4.61 4.615 4.615 0 00-4.609 4.61 4.615 4.615 0 004.609 4.609 4.615 4.615 0 004.61-4.61zm-6.851 0a2.245 2.245 0 012.24-2.243 2.245 2.245 0 012.243 2.243 2.245 2.245 0 01-2.242 2.241 2.244 2.244 0 01-2.242-2.241zm50.638 18.459l-10.484-6.026-1.18 2.053 10.484 6.025 1.18-2.052zM43.51 101.74l-1.18 2.053 3.072 1.764 1.179-2.053-3.072-1.764zm9.698-39.852h-12.29v2.367h12.29v-2.367zm-14.993 0h-3.64v2.367h3.64v-2.367zm45.198 41.64l-4.253 2.655 1.254 2.008 4.252-2.655-1.253-2.008zm2.836-1.765l1.253 2.008 19.903-12.42-1.253-2.007-19.903 12.419zM17.115 52.515H9.64v2.367h7.476v-2.367zm-9.507 0H4.906v2.367h2.702v-2.367zm75.116 8.735l13.301-22.753-2.044-1.195L80.68 60.055l2.044 1.195zm3.867-19.025a4.894 4.894 0 00-4.888-4.889 4.894 4.894 0 00-4.889 4.889 4.894 4.894 0 004.889 4.889 4.894 4.894 0 004.888-4.89zm-7.41 0a2.524 2.524 0 012.522-2.521 2.524 2.524 0 012.521 2.52 2.524 2.524 0 01-2.521 2.523 2.524 2.524 0 01-2.521-2.522zm10.534 14.723a4.894 4.894 0 004.888 4.889 4.895 4.895 0 004.89-4.89 4.895 4.895 0 00-4.89-4.888 4.894 4.894 0 00-4.888 4.889zm7.41 0a2.525 2.525 0 01-2.522 2.522 2.524 2.524 0 01-2.52-2.522c0-1.39 1.13-2.521 2.52-2.521a2.525 2.525 0 012.523 2.52zm13.138-15.81l2.222-.82a25.96 25.96 0 00-12.37-14.04l-1.096 2.098a23.594 23.594 0 0111.244 12.762zM88.154 23.35v2.367c2.216 0 4.41.31 6.523.919l.657-2.275a25.915 25.915 0 00-7.18-1.01z" fill="#B88571"/><path d="M66.963 49.277c0 11.685 9.506 21.192 21.192 21.192 11.685 0 21.191-9.507 21.191-21.192S99.84 28.085 88.155 28.085c-11.686 0-21.192 9.507-21.192 21.192zm40.016 0c0 10.38-8.444 18.824-18.824 18.824S69.33 59.657 69.33 49.277s8.444-18.825 18.825-18.825c10.38 0 18.824 8.445 18.824 18.825zM21.137 24.468c0 7.227 3.063 14.187 8.402 19.092l1.602-1.743c-4.853-4.459-7.637-10.782-7.637-17.35h-2.367zm20.075 22.824a23.398 23.398 0 01-6.041-2.493l-1.2 2.041a25.769 25.769 0 006.653 2.745l.587-2.293z" fill="#B88571"/><path d="M47.063 3.275c-11.686 0-21.192 9.507-21.192 21.192 0 11.686 9.506 21.193 21.192 21.193 11.685 0 21.193-9.507 21.193-21.193 0-11.685-9.508-21.192-21.193-21.192zm0 40.017c-10.38 0-18.825-8.444-18.825-18.825 0-10.38 8.444-18.825 18.825-18.825 10.38 0 18.825 8.445 18.825 18.825 0 10.38-8.445 18.825-18.825 18.825z" fill="#B88571"/><path d="M47.062 16.015a3.625 3.625 0 013.622 3.621h2.367c0-2.896-2.068-5.317-4.805-5.869V9.69h-2.368v4.079a5.996 5.996 0 00-4.804 5.868 5.995 5.995 0 005.988 5.988 3.625 3.625 0 013.622 3.621 3.625 3.625 0 01-3.622 3.621 3.625 3.625 0 01-3.62-3.62h-2.368c0 2.896 2.068 5.317 4.804 5.868v4.133h2.368v-4.133a5.997 5.997 0 004.805-5.869 5.995 5.995 0 00-5.989-5.988 3.625 3.625 0 01-3.62-3.62 3.625 3.625 0 013.62-3.622z" fill="#B88571"/></svg>