<svg width="110" height="113" fill="none" xmlns="http://www.w3.org/2000/svg"><path d="M20.544 63.15h-1.652v-7.056h-6.726v7.056h-1.652C4.732 63.15.012 67.854.012 73.617v3.763c0 5.762 4.72 10.466 10.502 10.466h10.03c2.124 0 3.776 1.647 3.776 3.764v3.763c0 2.117-1.652 3.763-3.776 3.763h-10.03c-2.124 0-3.776-1.646-3.776-3.763v-1.764H.012v1.764c0 5.762 4.72 10.466 10.502 10.466h1.652v7.056h6.726v-7.056h1.652c5.782 0 10.502-4.704 10.502-10.466V91.61c0-5.763-4.72-10.467-10.502-10.467h-10.03c-2.124 0-3.776-1.646-3.776-3.763v-3.763c0-2.117 1.652-3.763 3.776-3.763h10.03c2.124 0 3.776 1.646 3.776 3.763v1.764h6.726v-1.764c-.118-5.763-4.72-10.467-10.502-10.467zm-8.378-12.7h6.608V39.983h7.316L15.47 24.46 4.85 39.983h7.316V50.45zm47.907 12.7h-1.652v-7.056h-6.726v7.056h-1.652c-5.782 0-10.502 4.704-10.502 10.467v3.763c0 5.762 4.72 10.466 10.502 10.466h10.03c2.124 0 3.776 1.647 3.776 3.764v3.763c0 2.117-1.652 3.763-3.776 3.763h-10.03c-2.124 0-3.776-1.646-3.776-3.763v-1.764h-6.726v1.764c0 5.762 4.72 10.466 10.502 10.466h1.652v7.056h6.726v-7.056h1.652c5.782 0 10.502-4.704 10.502-10.466V91.61c0-5.763-4.72-10.467-10.502-10.467h-10.03c-2.124 0-3.776-1.646-3.776-3.763v-3.763c0-2.117 1.652-3.763 3.776-3.763h10.03c2.124 0 3.776 1.646 3.776 3.763v1.764h6.726v-1.764c-.118-5.763-4.838-10.467-10.502-10.467zm-8.378-12.7h6.608V28.223h7.316L54.999 12.7l-10.62 15.523h7.316V50.45zm58.292 24.813V73.5c0-5.762-4.72-10.466-10.502-10.466h-1.652v-7.056h-6.726v7.056h-1.652c-5.782 0-10.502 4.704-10.502 10.466v3.763c0 5.763 4.72 10.467 10.502 10.467h10.03c2.124 0 3.776 1.646 3.776 3.763v3.763c0 2.117-1.652 3.763-3.776 3.763h-10.03c-2.124 0-3.776-1.646-3.776-3.763v-1.764h-6.726v1.764c0 5.762 4.72 10.466 10.502 10.466h1.652v7.056h6.726v-7.056h1.652c5.782 0 10.502-4.704 10.502-10.466v-3.763c0-5.763-4.72-10.467-10.502-10.467h-10.03c-2.124 0-3.776-1.646-3.776-3.763V73.5c0-2.117 1.652-3.763 3.776-3.763h10.03c2.124 0 3.776 1.646 3.776 3.763v1.764h6.726zM91.226 50.45h6.608V16.462h7.316L94.53.94 83.91 16.463h7.316V50.45z" fill="#DCB8AA"/></svg>