<svg width="42" height="34" fill="none" xmlns="http://www.w3.org/2000/svg"><path d="M2.8 14.166H7V25.5H4.2c-.371 0-.727.149-.99.415a1.425 1.425 0 000 2.003c.263.266.619.415.99.415h33.6c.371 0 .727-.15.99-.415a1.425 1.425 0 000-2.003 1.392 1.392 0 00-.99-.415H35V14.166h4.2c.305 0 .6-.101.844-.287a1.433 1.433 0 00.46-1.643 1.422 1.422 0 00-.57-.693L21.733.21a1.387 1.387 0 00-1.467 0l-18.2 11.333c-.26.162-.46.405-.57.692a1.432 1.432 0 00.46 1.644c.242.186.538.287.843.287zm7 0h5.6V25.5H9.8V14.166zm14 0V25.5h-5.6V14.166h5.6zM32.2 25.5h-5.6V14.166h5.6V25.5zM21 3.079l13.255 8.254H7.744L21 3.079zm21 29.504c0 .376-.148.736-.41 1.002a1.392 1.392 0 01-.99.415H1.4c-.371 0-.727-.15-.99-.415a1.426 1.426 0 010-2.004c.263-.265.619-.414.99-.414h39.2c.371 0 .727.149.99.414.262.266.41.627.41 1.002z" fill="#B88571"/></svg>