<svg width="32" height="30" fill="none" xmlns="http://www.w3.org/2000/svg"><path d="M28.913 22.5c.872 0 1.607.3 2.205.9.598.6.892 1.3.882 2.1L19.79 30 9.147 27V13.5h2.965l11.054 4.035c.79.31 1.186.87 1.186 1.68 0 .47-.172.88-.517 1.23-.345.35-.78.535-1.308.555H18.27l-2.66-1.005-.503 1.41L18.27 22.5h10.643zM22.831 1.845C23.906.615 25.274 0 26.937 0c1.378 0 2.544.5 3.497 1.5.953 1 1.46 2.15 1.52 3.45 0 1.03-.507 2.26-1.52 3.69-1.014 1.43-2.012 2.625-2.996 3.585-.983.96-2.519 2.385-4.607 4.275-2.108-1.89-3.659-3.315-4.652-4.275-.994-.96-1.992-2.155-2.996-3.585-1.003-1.43-1.495-2.66-1.474-3.69 0-1.36.491-2.51 1.474-3.45.984-.94 2.17-1.44 3.558-1.5 1.622 0 2.986.615 4.09 1.845zM0 13.5h6.106V30H0V13.5z" fill="#B88571"/></svg>