<svg width="33" height="26" fill="none" xmlns="http://www.w3.org/2000/svg"><path d="M30.323 7.382l-2.032 3.014a12.874 12.874 0 01-.364 12.346H5.021a12.875 12.875 0 01-1.677-8.022 12.95 12.95 0 013.51-7.424 13.28 13.28 0 017.312-3.892 13.394 13.394 0 018.225 1.176l3.057-2.003A16.717 16.717 0 0014.962.073a16.636 16.636 0 00-9.82 4.408 16.212 16.212 0 00-4.967 9.44 16.09 16.09 0 002.003 10.45c.289.492.703.902 1.201 1.188A3.343 3.343 0 005.021 26h22.89a3.343 3.343 0 001.66-.433 3.282 3.282 0 001.215-1.196 16.105 16.105 0 002.209-8.564 16.137 16.137 0 00-2.655-8.441l-.017.016zm-16.18 11.142a3.346 3.346 0 004.677 0l9.355-13.83-14.031 9.22a3.255 3.255 0 00-.718 1.057 3.218 3.218 0 00.718 3.552z" fill="#B88571"/></svg>