<svg width="40" height="40" fill="none" xmlns="http://www.w3.org/2000/svg"><g clip-path="url(#clip0_1_131)"><path opacity=".2" d="M20 31.25c6.213 0 11.25-5.037 11.25-11.25S26.213 8.75 20 8.75 8.75 13.787 8.75 20 13.787 31.25 20 31.25z" fill="#2C4158"/><path d="M20 31.25c6.213 0 11.25-5.037 11.25-11.25S26.213 8.75 20 8.75 8.75 13.787 8.75 20 13.787 31.25 20 31.25z" stroke="#2C4158" stroke-miterlimit="10"/><path d="M20 13.75V20h6.25m-12.5-9.36l1.063-5.859a1.25 1.25 0 011.234-1.031h7.906a1.25 1.25 0 011.235 1.031l1.062 5.86M13.75 29.36l1.063 5.859a1.25 1.25 0 001.234 1.031h7.906a1.25 1.25 0 001.235-1.031l1.062-5.86" stroke="#2C4158" stroke-linecap="round" stroke-linejoin="round"/></g><defs><clipPath id="clip0_1_131"><path fill="#fff" d="M0 0h40v40H0z"/></clipPath></defs></svg>