<svg width="80" height="80" fill="none" xmlns="http://www.w3.org/2000/svg"><g clip-path="url(#clip0_1_634)"><path opacity=".2" d="M47.39 67.5v-20H32.426v20H12.471V36.094a2.475 2.475 0 01.81-1.844l24.944-22.719a2.46 2.46 0 013.336 0l24.973 22.72a2.593 2.593 0 01.811 1.843V67.5H47.391z" fill="#C98B94"/><path d="M67.345 67.5V36.094a2.6 2.6 0 00-.81-1.844L41.56 11.531a2.46 2.46 0 00-3.337 0l-24.942 22.72a2.468 2.468 0 00-.81 1.843V67.5m-7.482 0h69.839" stroke="#C98B94" stroke-width="3" stroke-linecap="round" stroke-linejoin="round"/><path d="M47.391 67.5V50c0-.663-.263-1.299-.73-1.768a2.492 2.492 0 00-1.764-.732H34.92a2.49 2.49 0 00-1.764.732 2.503 2.503 0 00-.73 1.768v17.5" stroke="#C98B94" stroke-width="3" stroke-linecap="round" stroke-linejoin="round"/></g><defs><clipPath id="clip0_1_634"><path fill="#fff" d="M0 0h79.817v80H0z"/></clipPath></defs></svg>