<svg width="80" height="80" fill="none" xmlns="http://www.w3.org/2000/svg"><g clip-path="url(#clip0_1_612)"><path opacity=".2" d="M40 62.5c12.426 0 22.5-10.074 22.5-22.5S52.426 17.5 40 17.5 17.5 27.574 17.5 40 27.574 62.5 40 62.5z" fill="#C98B94"/><path d="M40 62.5c12.426 0 22.5-10.074 22.5-22.5S52.426 17.5 40 17.5 17.5 27.574 17.5 40 27.574 62.5 40 62.5z" stroke="#C98B94" stroke-width="3" stroke-miterlimit="10"/><path d="M40 27.5V40h12.5m-25-18.719l2.125-11.718A2.5 2.5 0 0132.094 7.5h15.812a2.5 2.5 0 012.469 2.063L52.5 21.28m-25 37.439l2.125 11.718a2.5 2.5 0 002.469 2.063h15.812a2.5 2.5 0 002.469-2.063L52.5 58.72" stroke="#C98B94" stroke-width="3" stroke-linecap="round" stroke-linejoin="round"/></g><defs><clipPath id="clip0_1_612"><path fill="#fff" d="M0 0h80v80H0z"/></clipPath></defs></svg>