<svg width="80" height="80" fill="none" xmlns="http://www.w3.org/2000/svg"><g clip-path="url(#clip0_1_644)"><path opacity=".2" d="M39.908 50h-9.977V40L52.38 17.5l9.978 10L39.908 50z" fill="#C98B94"/><path d="M39.908 50h-9.977V40l29.931-30 9.977 10-29.93 30zM52.38 17.5l9.977 10" stroke="#C98B94" stroke-width="3" stroke-linecap="round" stroke-linejoin="round"/><path d="M67.345 37.5V65c0 .663-.263 1.299-.73 1.768a2.491 2.491 0 01-1.764.732H14.966a2.492 2.492 0 01-1.764-.732 2.503 2.503 0 01-.73-1.768V15c0-.663.262-1.299.73-1.768a2.492 2.492 0 011.764-.732h27.437" stroke="#C98B94" stroke-width="3" stroke-linecap="round" stroke-linejoin="round"/></g><defs><clipPath id="clip0_1_644"><path fill="#fff" d="M0 0h79.817v80H0z"/></clipPath></defs></svg>