<svg width="26" height="26" fill="none" xmlns="http://www.w3.org/2000/svg"><path fill-rule="evenodd" clip-rule="evenodd" d="M5.603 13c0-.844.14-1.654.39-2.413L1.614 7.24A12.993 12.993 0 00.276 13c0 2.07.48 4.022 1.333 5.755l4.38-3.352A7.69 7.69 0 015.602 13z" fill="#FBBC05"/><path fill-rule="evenodd" clip-rule="evenodd" d="M13.297 5.318c1.834 0 3.491.65 4.793 1.714l3.787-3.782C19.569 1.24 16.611 0 13.297 0A12.98 12.98 0 001.613 7.241l4.381 3.346a7.672 7.672 0 017.303-5.269z" fill="#EA4335"/><path fill-rule="evenodd" clip-rule="evenodd" d="M13.297 20.682a7.672 7.672 0 01-7.302-5.269l-4.382 3.345A12.98 12.98 0 0013.297 26c3.175 0 6.207-1.128 8.482-3.24l-4.159-3.215c-1.173.74-2.651 1.137-4.323 1.137z" fill="#34A853"/><path fill-rule="evenodd" clip-rule="evenodd" d="M25.724 13c0-.768-.119-1.596-.297-2.364h-12.13v5.023h6.982c-.349 1.713-1.299 3.03-2.659 3.886l4.159 3.215c2.39-2.218 3.945-5.523 3.945-9.76z" fill="#4285F4"/></svg>